<svg width="16" height="16" viewBox="0 0 16 16" fill="none" xmlns="http://www.w3.org/2000/svg">
<mask id="mask0_2160_3379" style="mask-type:alpha" maskUnits="userSpaceOnUse" x="0" y="0" width="16" height="16">
<rect width="16" height="16" fill="#D9D9D9"/>
</mask>
<g mask="url(#mask0_2160_3379)">
<path d="M1.33325 12.6663V8.66634C1.33325 8.36634 1.39436 8.09412 1.51659 7.84967C1.63881 7.60523 1.79992 7.38856 1.99992 7.19967V5.33301C1.99992 4.77745 2.19436 4.30523 2.58325 3.91634C2.97214 3.52745 3.44436 3.33301 3.99992 3.33301H6.66658C6.92214 3.33301 7.16103 3.38023 7.38325 3.47467C7.60547 3.56912 7.81103 3.69967 7.99992 3.86634C8.18881 3.69967 8.39436 3.56912 8.61658 3.47467C8.83881 3.38023 9.0777 3.33301 9.33325 3.33301H11.9999C12.5555 3.33301 13.0277 3.52745 13.4166 3.91634C13.8055 4.30523 13.9999 4.77745 13.9999 5.33301V7.19967C14.1999 7.38856 14.361 7.60523 14.4833 7.84967C14.6055 8.09412 14.6666 8.36634 14.6666 8.66634V12.6663H13.3333V11.333H2.66659V12.6663H1.33325ZM8.66658 6.66634H12.6666V5.33301C12.6666 5.14412 12.6027 4.98579 12.4749 4.85801C12.3471 4.73023 12.1888 4.66634 11.9999 4.66634H9.33325C9.14436 4.66634 8.98603 4.73023 8.85825 4.85801C8.73047 4.98579 8.66658 5.14412 8.66658 5.33301V6.66634ZM3.33325 6.66634H7.33325V5.33301C7.33325 5.14412 7.26936 4.98579 7.14159 4.85801C7.01381 4.73023 6.85547 4.66634 6.66658 4.66634H3.99992C3.81103 4.66634 3.6527 4.73023 3.52492 4.85801C3.39714 4.98579 3.33325 5.14412 3.33325 5.33301V6.66634ZM2.66659 9.99967H13.3333V8.66634C13.3333 8.47745 13.2694 8.31912 13.1416 8.19134C13.0138 8.06356 12.8555 7.99967 12.6666 7.99967H3.33325C3.14436 7.99967 2.98603 8.06356 2.85825 8.19134C2.73047 8.31912 2.66659 8.47745 2.66659 8.66634V9.99967Z" fill="#1C1B1F"/>
</g>
</svg>
