<svg width="10" height="16" viewBox="0 0 10 16" fill="none" xmlns="http://www.w3.org/2000/svg">
<mask id="mask0_2160_3397" style="mask-type:alpha" maskUnits="userSpaceOnUse" x="0" y="0" width="10" height="16">
<rect width="10" height="16" fill="#022B3A"/>
</mask>
<g mask="url(#mask0_2160_3397)">
<path d="M5 4.625C4.6375 4.625 4.32812 4.49688 4.07188 4.24062C3.81563 3.98438 3.6875 3.675 3.6875 3.3125C3.6875 2.95 3.81563 2.64062 4.07188 2.38437C4.32812 2.12812 4.6375 2 5 2C5.3625 2 5.67188 2.12812 5.92813 2.38437C6.18438 2.64062 6.3125 2.95 6.3125 3.3125C6.3125 3.675 6.18438 3.98438 5.92813 4.24062C5.67188 4.49688 5.3625 4.625 5 4.625ZM3.5 14V10.25H2.75V6.875C2.75 6.4625 2.89688 6.10938 3.19063 5.81563C3.48438 5.52188 3.8375 5.375 4.25 5.375H5.75C6.1625 5.375 6.51562 5.52188 6.80937 5.81563C7.10313 6.10938 7.25 6.4625 7.25 6.875V10.25H6.5V14H3.5Z" fill="currentColor"/>
</g>
</svg>
