<svg width="16" height="16" viewBox="0 0 16 16" fill="none" xmlns="http://www.w3.org/2000/svg">
<mask id="mask0_2160_3385" style="mask-type:alpha" maskUnits="userSpaceOnUse" x="0" y="0" width="16" height="16">
<rect width="16" height="16" fill="#D9D9D9"/>
</mask>
<g mask="url(#mask0_2160_3385)">
<path d="M3.33341 14C3.14453 14 2.98619 13.9361 2.85841 13.8083C2.73064 13.6806 2.66675 13.5222 2.66675 13.3333V12.6667C2.11119 12.6667 1.63897 12.4722 1.25008 12.0833C0.861192 11.6944 0.666748 11.2222 0.666748 10.6667V7.33333C0.666748 6.77778 0.861192 6.30556 1.25008 5.91667C1.63897 5.52778 2.11119 5.33333 2.66675 5.33333V4C2.66675 3.44444 2.86119 2.97222 3.25008 2.58333C3.63897 2.19444 4.11119 2 4.66675 2H11.3334C11.889 2 12.3612 2.19444 12.7501 2.58333C13.139 2.97222 13.3334 3.44444 13.3334 4V5.33333C13.889 5.33333 14.3612 5.52778 14.7501 5.91667C15.139 6.30556 15.3334 6.77778 15.3334 7.33333V10.6667C15.3334 11.2222 15.139 11.6944 14.7501 12.0833C14.3612 12.4722 13.889 12.6667 13.3334 12.6667V13.3333C13.3334 13.5222 13.2695 13.6806 13.1417 13.8083C13.014 13.9361 12.8556 14 12.6667 14C12.4779 14 12.3195 13.9361 12.1917 13.8083C12.064 13.6806 12.0001 13.5222 12.0001 13.3333V12.6667H4.00008V13.3333C4.00008 13.5222 3.93619 13.6806 3.80841 13.8083C3.68064 13.9361 3.5223 14 3.33341 14ZM2.66675 11.3333H13.3334C13.5223 11.3333 13.6806 11.2694 13.8084 11.1417C13.9362 11.0139 14.0001 10.8556 14.0001 10.6667V7.33333C14.0001 7.14444 13.9362 6.98611 13.8084 6.85833C13.6806 6.73056 13.5223 6.66667 13.3334 6.66667C13.1445 6.66667 12.9862 6.73056 12.8584 6.85833C12.7306 6.98611 12.6667 7.14444 12.6667 7.33333V10H3.33341V7.33333C3.33341 7.14444 3.26953 6.98611 3.14175 6.85833C3.01397 6.73056 2.85564 6.66667 2.66675 6.66667C2.47786 6.66667 2.31953 6.73056 2.19175 6.85833C2.06397 6.98611 2.00008 7.14444 2.00008 7.33333V10.6667C2.00008 10.8556 2.06397 11.0139 2.19175 11.1417C2.31953 11.2694 2.47786 11.3333 2.66675 11.3333ZM4.66675 8.66667H11.3334V7.33333C11.3334 7.03333 11.3945 6.76111 11.5167 6.51667C11.639 6.27222 11.8001 6.05556 12.0001 5.86667V4C12.0001 3.81111 11.9362 3.65278 11.8084 3.525C11.6806 3.39722 11.5223 3.33333 11.3334 3.33333H4.66675C4.47786 3.33333 4.31953 3.39722 4.19175 3.525C4.06397 3.65278 4.00008 3.81111 4.00008 4V5.86667C4.20008 6.05556 4.36119 6.27222 4.48341 6.51667C4.60564 6.76111 4.66675 7.03333 4.66675 7.33333V8.66667Z" fill="#1C1B1F"/>
</g>
</svg>
