<svg width="24" height="24" viewBox="0 0 24 24" fill="none" xmlns="http://www.w3.org/2000/svg">
<g id="flightsmode">
<mask id="mask0_808_900" style="mask-type:alpha" maskUnits="userSpaceOnUse" x="0" y="0" width="24" height="24">
<rect id="Bounding box" width="24" height="24" fill="#D9D9D9"/>
</mask>
<g mask="url(#mask0_808_900)">
<path id="flightsmode_2" d="M3.65005 15.4L4.70005 14.35L7.20005 14.7L11.1 10.8L3.30005 6.55001L4.70005 5.15001L14.25 7.60001L18.15 3.75001C18.4334 3.46668 18.7834 3.32501 19.2 3.32501C19.6167 3.32501 19.9667 3.46668 20.25 3.75001C20.5334 4.03335 20.675 4.38335 20.675 4.80001C20.675 5.21668 20.5334 5.56668 20.25 5.85001L16.4 9.75001L18.85 19.3L17.45 20.7L13.2 12.9L9.30005 16.8L9.65005 19.3L8.60005 20.35L6.85005 17.15L3.65005 15.4Z" fill="currentColor"/>
</g>
</g>
</svg>
