<svg width="20" height="20" viewBox="0 0 20 20" fill="none" xmlns="http://www.w3.org/2000/svg">
<g id="Property 1=Variant2">
<mask id="mask0_1329_2624" style="mask-type:alpha" maskUnits="userSpaceOnUse" x="0" y="0" width="20" height="20">
<rect id="Bounding box" width="20" height="20" fill="#D9D9D9"/>
</mask>
<g mask="url(#mask0_1329_2624)">
<g id="favorite" filter="url(#filter0_d_1329_2624)">
<path d="M8.79163 16.4163L9.99996 17.4997L11.2083 16.4163C12.6111 15.1525 13.7708 14.0622 14.6875 13.1455C15.6041 12.2288 16.3333 11.4059 16.875 10.6768C17.4166 9.94759 17.7951 9.27745 18.0104 8.66634C18.2257 8.05523 18.3333 7.43023 18.3333 6.79134C18.3333 5.48579 17.8958 4.39551 17.0208 3.52051C16.1458 2.64551 15.0555 2.20801 13.75 2.20801C13.0277 2.20801 12.3402 2.36079 11.6875 2.66634C11.0347 2.9719 10.4722 3.40245 9.99996 3.95801C9.52774 3.40245 8.96524 2.9719 8.31246 2.66634C7.65968 2.36079 6.97218 2.20801 6.24996 2.20801C4.9444 2.20801 3.85413 2.64551 2.97913 3.52051C2.10413 4.39551 1.66663 5.48579 1.66663 6.79134C1.66663 7.43023 1.77426 8.05523 1.98954 8.66634C2.20482 9.27745 2.58329 9.94759 3.12496 10.6768C3.66663 11.4059 4.39579 12.2288 5.31246 13.1455C6.22913 14.0622 7.38885 15.1525 8.79163 16.4163Z" fill="currentColor"/>
</g>
</g>
</g>
<defs>
<filter id="filter0_d_1329_2624" x="-1.33337" y="-0.791992" width="22.6666" height="21.2915" filterUnits="userSpaceOnUse" color-interpolation-filters="sRGB">
<feFlood flood-opacity="0" result="BackgroundImageFix"/>
<feColorMatrix in="SourceAlpha" type="matrix" values="0 0 0 0 0 0 0 0 0 0 0 0 0 0 0 0 0 0 127 0" result="hardAlpha"/>
<feOffset/>
<feGaussianBlur stdDeviation="1.5"/>
<feComposite in2="hardAlpha" operator="out"/>
<feColorMatrix type="matrix" values="0 0 0 0 0 0 0 0 0 0 0 0 0 0 0 0 0 0 0.4 0"/>
<feBlend mode="normal" in2="BackgroundImageFix" result="effect1_dropShadow_1329_2624"/>
<feBlend mode="normal" in="SourceGraphic" in2="effect1_dropShadow_1329_2624" result="shape"/>
</filter>
</defs>
</svg>
