<svg width="20" height="20" viewBox="0 0 20 20" fill="none" xmlns="http://www.w3.org/2000/svg">
<g id="Property 1=Default">
<mask id="mask0_1269_3614" style="mask-type:alpha" maskUnits="userSpaceOnUse" x="0" y="0" width="20" height="20">
<rect id="Bounding box" width="20" height="20" fill="#D9D9D9"/>
</mask>
<g mask="url(#mask0_1269_3614)">
<g id="favorite" filter="url(#filter0_d_1269_3614)">
<path d="M9.99996 17.4997L8.79163 16.4163C7.38885 15.1525 6.22913 14.0622 5.31246 13.1455C4.39579 12.2288 3.66663 11.4059 3.12496 10.6768C2.58329 9.94759 2.20482 9.27745 1.98954 8.66634C1.77426 8.05523 1.66663 7.43023 1.66663 6.79134C1.66663 5.48579 2.10413 4.39551 2.97913 3.52051C3.85413 2.64551 4.9444 2.20801 6.24996 2.20801C6.97218 2.20801 7.65968 2.36079 8.31246 2.66634C8.96524 2.9719 9.52774 3.40245 9.99996 3.95801C10.4722 3.40245 11.0347 2.9719 11.6875 2.66634C12.3402 2.36079 13.0277 2.20801 13.75 2.20801C15.0555 2.20801 16.1458 2.64551 17.0208 3.52051C17.8958 4.39551 18.3333 5.48579 18.3333 6.79134C18.3333 7.43023 18.2257 8.05523 18.0104 8.66634C17.7951 9.27745 17.4166 9.94759 16.875 10.6768C16.3333 11.4059 15.6041 12.2288 14.6875 13.1455C13.7708 14.0622 12.6111 15.1525 11.2083 16.4163L9.99996 17.4997ZM9.99996 15.2497C11.3333 14.0552 12.4305 13.0309 13.2916 12.1768C14.1527 11.3226 14.8333 10.5795 15.3333 9.94759C15.8333 9.31565 16.1805 8.75315 16.375 8.26009C16.5694 7.76704 16.6666 7.27745 16.6666 6.79134C16.6666 5.95801 16.3888 5.26356 15.8333 4.70801C15.2777 4.15245 14.5833 3.87467 13.75 3.87467C13.0972 3.87467 12.493 4.0587 11.9375 4.42676C11.3819 4.79481 11 5.26356 10.7916 5.83301H9.20829C8.99996 5.26356 8.61801 4.79481 8.06246 4.42676C7.5069 4.0587 6.90274 3.87467 6.24996 3.87467C5.41663 3.87467 4.72218 4.15245 4.16663 4.70801C3.61107 5.26356 3.33329 5.95801 3.33329 6.79134C3.33329 7.27745 3.43051 7.76704 3.62496 8.26009C3.8194 8.75315 4.16663 9.31565 4.66663 9.94759C5.16663 10.5795 5.84718 11.3226 6.70829 12.1768C7.5694 13.0309 8.66663 14.0552 9.99996 15.2497Z" fill="currentColor"/>
</g>
</g>
</g>
<defs>
<filter id="filter0_d_1269_3614" x="-1.33337" y="-0.791992" width="22.6666" height="21.2915" filterUnits="userSpaceOnUse" color-interpolation-filters="sRGB">
<feFlood flood-opacity="0" result="BackgroundImageFix"/>
<feColorMatrix in="SourceAlpha" type="matrix" values="0 0 0 0 0 0 0 0 0 0 0 0 0 0 0 0 0 0 127 0" result="hardAlpha"/>
<feOffset/>
<feGaussianBlur stdDeviation="1.5"/>
<feComposite in2="hardAlpha" operator="out"/>
<feColorMatrix type="matrix" values="0 0 0 0 0 0 0 0 0 0 0 0 0 0 0 0 0 0 0.4 0"/>
<feBlend mode="normal" in2="BackgroundImageFix" result="effect1_dropShadow_1269_3614"/>
<feBlend mode="normal" in="SourceGraphic" in2="effect1_dropShadow_1269_3614" result="shape"/>
</filter>
</defs>
</svg>
