<svg width="16" height="16" viewBox="0 0 16 16" fill="none" xmlns="http://www.w3.org/2000/svg">
<g id="ios_share">
<mask id="mask0_1544_3575" style="mask-type:alpha" maskUnits="userSpaceOnUse" x="0" y="0" width="16" height="16">
<rect id="Bounding box" width="16" height="16" fill="#1F7A8C"/>
</mask>
<g mask="url(#mask0_1544_3575)">
<path id="ios_share_2" d="M4.00008 15.3337C3.63341 15.3337 3.31953 15.2031 3.05841 14.942C2.7973 14.6809 2.66675 14.367 2.66675 14.0003V6.66699C2.66675 6.30033 2.7973 5.98644 3.05841 5.72533C3.31953 5.46421 3.63341 5.33366 4.00008 5.33366H6.00008V6.66699H4.00008V14.0003H12.0001V6.66699H10.0001V5.33366H12.0001C12.3667 5.33366 12.6806 5.46421 12.9417 5.72533C13.2029 5.98644 13.3334 6.30033 13.3334 6.66699V14.0003C13.3334 14.367 13.2029 14.6809 12.9417 14.942C12.6806 15.2031 12.3667 15.3337 12.0001 15.3337H4.00008ZM7.33341 10.667V3.21699L6.26675 4.28366L5.33341 3.33366L8.00008 0.666992L10.6667 3.33366L9.73341 4.28366L8.66675 3.21699V10.667H7.33341Z" fill="currentColor"/>
</g>
</g>
</svg>
