<svg width="26" height="46" viewBox="0 0 26 46" fill="none" xmlns="http://www.w3.org/2000/svg">
<g id="Property 1=Variant2">
<g id="Subtract">
<path fill-rule="evenodd" clip-rule="evenodd" d="M13 41C13 41 25 26.6274 25 20C25 13.3726 19.6274 8 13 8C6.37258 8 1 13.3726 1 20C1 26.6274 13 41 13 41ZM13 26C16.3137 26 19 23.3137 19 20C19 16.6863 16.3137 14 13 14C9.68629 14 7 16.6863 7 20C7 23.3137 9.68629 26 13 26Z" fill="#1F7A8C"/>
<path d="M13 41L12.2324 41.6409L13 42.5603L13.7676 41.6409L13 41ZM24 20C24 21.4128 23.342 23.378 22.2283 25.6346C21.1317 27.8564 19.6596 30.2321 18.1725 32.4238C16.6878 34.612 15.2012 36.598 14.0847 38.038C13.5269 38.7575 13.0624 39.3395 12.7379 39.7409C12.5757 39.9415 12.4486 40.097 12.3624 40.2018C12.3193 40.2543 12.2864 40.294 12.2645 40.3205C12.2535 40.3337 12.2453 40.3436 12.2399 40.35C12.2372 40.3533 12.2353 40.3556 12.234 40.3572C12.2334 40.3579 12.2329 40.3585 12.2326 40.3588C12.2325 40.3589 12.2324 40.359 12.2324 40.3591C12.2324 40.3591 12.2324 40.3591 13 41C13.7676 41.6409 13.7677 41.6408 13.7679 41.6406C13.768 41.6404 13.7682 41.6402 13.7685 41.6399C13.7689 41.6394 13.7696 41.6386 13.7704 41.6376C13.772 41.6356 13.7744 41.6328 13.7775 41.6291C13.7836 41.6217 13.7926 41.6109 13.8044 41.5967C13.8279 41.5683 13.8624 41.5266 13.9072 41.4721C13.9967 41.3632 14.1274 41.2034 14.2933 40.9981C14.6251 40.5876 15.0981 39.995 15.6653 39.2635C16.7988 37.8015 18.3122 35.7801 19.8275 33.5467C21.3404 31.3169 22.8683 28.8568 24.0217 26.5198C25.158 24.2176 26 21.9009 26 20H24ZM13 9C19.0751 9 24 13.9249 24 20H26C26 12.8203 20.1797 7 13 7V9ZM2 20C2 13.9249 6.92487 9 13 9V7C5.8203 7 0 12.8203 0 20H2ZM13 41C13.7676 40.3591 13.7676 40.3591 13.7676 40.3591C13.7676 40.359 13.7675 40.3589 13.7674 40.3588C13.7671 40.3585 13.7666 40.3579 13.766 40.3572C13.7647 40.3556 13.7628 40.3533 13.7601 40.35C13.7547 40.3436 13.7465 40.3337 13.7355 40.3205C13.7136 40.294 13.6807 40.2543 13.6376 40.2018C13.5514 40.097 13.4243 39.9415 13.2621 39.7409C12.9376 39.3395 12.4731 38.7575 11.9153 38.038C10.7988 36.598 9.3122 34.612 7.82751 32.4238C6.34041 30.2321 4.86831 27.8564 3.77173 25.6346C2.65798 23.378 2 21.4128 2 20H0C0 21.9009 0.842015 24.2176 1.97827 26.5198C3.13169 28.8568 4.65959 31.3169 6.17249 33.5467C7.6878 35.7801 9.20118 37.8015 10.3347 39.2635C10.9019 39.995 11.3749 40.5876 11.7067 40.9981C11.8726 41.2034 12.0033 41.3632 12.0928 41.4721C12.1376 41.5266 12.1721 41.5683 12.1956 41.5967C12.2074 41.6109 12.2164 41.6217 12.2225 41.6291C12.2256 41.6328 12.228 41.6356 12.2296 41.6376C12.2304 41.6386 12.2311 41.6394 12.2315 41.6399C12.2318 41.6402 12.232 41.6404 12.2321 41.6406C12.2323 41.6408 12.2324 41.6409 13 41ZM18 20C18 22.7614 15.7614 25 13 25V27C16.866 27 20 23.866 20 20H18ZM13 15C15.7614 15 18 17.2386 18 20H20C20 16.134 16.866 13 13 13V15ZM8 20C8 17.2386 10.2386 15 13 15V13C9.13401 13 6 16.134 6 20H8ZM13 25C10.2386 25 8 22.7614 8 20H6C6 23.866 9.13401 27 13 27V25Z" fill="#F0F0F0"/>
</g>
<ellipse id="Ellipse 6" cx="13" cy="45" rx="6" ry="1" fill="#022B3A" fill-opacity="0.4"/>
</g>
</svg>
