<svg width="24" height="24" viewBox="0 0 24 24" fill="none" xmlns="http://www.w3.org/2000/svg">
<path d="M19.9969 12.0097C20.001 12.5486 19.9451 13.0862 19.8302 13.6126C19.5397 15.033 18.8686 16.3475 17.8888 17.4152C16.9089 18.483 15.6573 19.2637 14.268 19.6738C12.8787 20.0838 11.4041 20.1078 10.0023 19.743C8.60041 19.3783 7.32415 18.6385 6.31024 17.6032L6.13507 17.4195L8.40371 15.1571L8.54548 15.3073C9.01034 15.8072 9.58001 16.1978 10.2136 16.4511C10.7899 16.69 11.408 16.8121 12.0318 16.8101C13.0242 16.8106 13.9924 16.5035 14.8033 15.9309C15.6143 15.3584 16.2281 14.5485 16.5607 13.6126H4.16674C3.94442 12.5556 3.94442 11.4638 4.16674 10.4068C4.44782 9.01461 5.09464 7.72255 6.04054 6.66377C6.98644 5.60498 8.19726 4.81776 9.54823 4.38317C10.8992 3.94858 12.3415 3.88233 13.7265 4.19128C15.1116 4.50022 16.3893 5.17318 17.4281 6.14082L15.1678 8.40323C14.9432 8.20386 14.697 8.03025 14.4339 7.88563C13.7072 7.46217 12.8809 7.24026 12.0401 7.24279C11.0489 7.24279 10.082 7.55024 9.27247 8.12283C8.46295 8.69541 7.85061 9.50501 7.51962 10.4402H19.8719C19.9703 10.9573 20.0122 11.4836 19.9969 12.0097Z" fill="currentColor"/>
</svg>
