<svg width="16" height="16" viewBox="0 0 16 16" fill="none" xmlns="http://www.w3.org/2000/svg">
<g id="sell">
<mask id="mask0_2604_4984" style="mask-type:alpha" maskUnits="userSpaceOnUse" x="0" y="0" width="16" height="16">
<rect id="Bounding box" width="16" height="16" fill="#D9D9D9"/>
</mask>
<g mask="url(#mask0_2604_4984)">
<path id="sell_2" d="M9.36677 14.0496C9.13343 14.2829 8.8501 14.3996 8.51677 14.3996C8.18343 14.3996 7.9001 14.2829 7.66676 14.0496L1.9501 8.33294C1.84315 8.22264 1.75809 8.09229 1.6949 7.94189C1.6317 7.79148 1.6001 7.6385 1.6001 7.48294V2.79961C1.6001 2.46961 1.7176 2.18711 1.9526 1.95211C2.1876 1.71711 2.4701 1.59961 2.8001 1.59961H7.48343C7.64419 1.59961 7.79549 1.62739 7.93733 1.68294C8.07918 1.7385 8.20969 1.82571 8.32888 1.94458L14.0501 7.66628C14.2834 7.89961 14.4001 8.18017 14.4001 8.50794C14.4001 8.83572 14.2834 9.11628 14.0501 9.34961L9.36677 14.0496ZM8.51677 13.1996L13.2001 8.51628L7.48343 2.79961H2.8001V7.48294L8.51677 13.1996ZM4.4001 5.39961C4.67788 5.39961 4.91399 5.30239 5.10843 5.10794C5.30288 4.9135 5.4001 4.67739 5.4001 4.39961C5.4001 4.12183 5.30288 3.88572 5.10843 3.69128C4.91399 3.49683 4.67788 3.39961 4.4001 3.39961C4.12232 3.39961 3.88621 3.49683 3.69176 3.69128C3.49732 3.88572 3.4001 4.12183 3.4001 4.39961C3.4001 4.67739 3.49732 4.9135 3.69176 5.10794C3.88621 5.30239 4.12232 5.39961 4.4001 5.39961Z" fill="#022B3A"/>
</g>
</g>
</svg>
