<svg width="24" height="24" viewBox="0 0 24 24" fill="none" xmlns="http://www.w3.org/2000/svg">
<g id="smoke_free">
<mask id="mask0_2160_3616" style="mask-type:alpha" maskUnits="userSpaceOnUse" x="0" y="0" width="24" height="24">
<rect id="Bounding box" width="24" height="24" fill="#D9D9D9"/>
</mask>
<g mask="url(#mask0_2160_3616)">
<path id="smoke_free_2" d="M19.7999 22.6L13.1999 16H1.9999V13H10.1999L1.3999 4.2L2.7999 2.8L21.1999 21.2L19.7999 22.6ZM18.8499 16L17.9999 15.15V13H19.4999V16H18.8499ZM20.4999 16V13H21.9999V16H20.4999ZM16.9999 14.15L15.8499 13H16.9999V14.15ZM17.9999 12V10.7C17.9999 10.05 17.8082 9.55417 17.4249 9.2125C17.0416 8.87083 16.5832 8.7 16.0499 8.7H14.4999C13.5666 8.7 12.7749 8.375 12.1249 7.725C11.4749 7.075 11.1499 6.28333 11.1499 5.35C11.1499 4.41667 11.4749 3.625 12.1249 2.975C12.7749 2.325 13.5666 2 14.4999 2V3.5C13.9999 3.5 13.5666 3.675 13.1999 4.025C12.8332 4.375 12.6499 4.81667 12.6499 5.35C12.6499 5.88333 12.8332 6.325 13.1999 6.675C13.5666 7.025 13.9999 7.2 14.4999 7.2H16.0499C16.9832 7.2 17.7916 7.5 18.4749 8.1C19.1582 8.7 19.4999 9.45 19.4999 10.35V12H17.9999ZM20.4999 12V9.75C20.4999 8.65 20.1166 7.7 19.3499 6.9C18.5832 6.1 17.6332 5.7 16.4999 5.7V4.2C16.9999 4.2 17.4332 4.01667 17.7999 3.65C18.1666 3.28333 18.3499 2.85 18.3499 2.35H19.8499C19.8499 2.83333 19.7582 3.27083 19.5749 3.6625C19.3916 4.05417 19.1499 4.41667 18.8499 4.75C19.7832 5.18333 20.5416 5.85 21.1249 6.75C21.7082 7.65 21.9999 8.65 21.9999 9.75V12H20.4999Z" fill="currentColor"/>
</g>
</g>
</svg>
