<svg width="135" height="21" viewBox="0 0 135 21" fill="none" xmlns="http://www.w3.org/2000/svg">
<g id="Group 65">
<path id="Vector" d="M112.5 0L112.004 3.06568C111.41 6.71483 110.238 10.2476 108.533 13.5328L104.653 21H101.347L97.4675 13.5328C95.7663 10.2457 94.5949 6.71365 93.996 3.06568L93.5 0H97.7321C98.4147 5.07126 100.213 9.93091 103 14.2336C105.777 9.92629 107.575 5.06877 108.268 0H112.489H112.5Z" fill="#022B3A"/>
<path id="Vector_2" d="M130.306 9.84165e-06V2.10218C128.746 0.931467 126.89 0.218331 124.948 0.0426787C123.005 -0.132974 121.052 0.235807 119.307 1.1077C117.562 1.97959 116.095 3.32012 115.069 4.97904C114.043 6.63796 113.5 8.54972 113.5 10.5C113.5 12.4503 114.043 14.362 115.069 16.0209C116.095 17.6798 117.562 19.0204 119.307 19.8923C121.052 20.7642 123.005 21.133 124.948 20.9573C126.89 20.7817 128.746 20.0685 130.306 18.8978V21H134.5V9.84165e-06H130.306ZM125.444 16.6423C124.398 16.8841 123.309 16.8557 122.277 16.5599C121.246 16.264 120.307 15.7104 119.549 14.9512C118.79 14.1921 118.238 13.2524 117.944 12.2208C117.649 11.1892 117.622 10.0996 117.866 9.05474C118.127 7.909 118.707 6.86031 119.538 6.02936C120.369 5.1984 121.418 4.61893 122.564 4.35765C124.193 3.9758 125.907 4.25672 127.329 5.13862C128.752 6.02052 129.765 7.43117 130.147 9.06022C130.529 10.6893 130.248 12.4033 129.366 13.8252C128.484 15.2471 127.073 16.2605 125.444 16.6423Z" fill="#022B3A"/>
<path id="Vector_3" d="M57.4958 10.5128C57.5013 11.22 57.4245 11.9256 57.2665 12.6166C56.8671 14.4808 55.9443 16.2061 54.597 17.6075C53.2498 19.0089 51.5288 20.0336 49.6185 20.5718C47.7082 21.11 45.6807 21.1415 43.7531 20.6627C41.8256 20.184 40.0707 19.2131 38.6766 17.8541L38.4357 17.6131L41.5551 14.6437L41.75 14.8409C42.3892 15.4969 43.1725 16.0096 44.0437 16.342C44.8362 16.6556 45.6859 16.8158 46.5437 16.8132C47.9082 16.8139 49.2395 16.4108 50.3546 15.6593C51.4696 14.9079 52.3137 13.8449 52.7709 12.6166H35.7293C35.4236 11.2292 35.4236 9.7963 35.7293 8.40898C36.1158 6.58168 37.0051 4.88585 38.3057 3.4962C39.6064 2.10654 41.2712 1.07331 43.1288 0.502911C44.9864 -0.067491 46.9695 -0.154438 48.8739 0.251049C50.7784 0.656535 52.5353 1.5398 53.9636 2.80983L50.8557 5.77924C50.5469 5.51757 50.2084 5.28971 49.8465 5.09989C48.8474 4.5441 47.7113 4.25284 46.5552 4.25616C45.1922 4.25616 43.8627 4.65969 42.7497 5.41121C41.6366 6.16273 40.7946 7.22532 40.3395 8.45282H57.3238C57.4592 9.13147 57.5168 9.8222 57.4958 10.5128Z" fill="#022B3A"/>
<path id="Vector_4" d="M12.5 0.0109376V4.1978C11.5377 4.1978 4.94054 4.50468 4.94054 10.4561V21H0.5V0H4.94054V2.19207C7.21026 0.84231 9.81981 0.0893632 12.5 0.0109376Z" fill="#022B3A"/>
<path id="Vector_5" d="M92.5 0.0109376V4.1978C91.5377 4.1978 84.9405 4.50468 84.9405 10.4561V21H80.5V0H84.9405V2.19207C87.2103 0.84231 89.8198 0.0893632 92.5 0.0109376Z" fill="#022B3A"/>
<path id="Vector_6" d="M34.4738 9.75371C34.4738 9.50185 34.4738 9.26096 34.3973 9.031C34.3207 8.80104 34.3317 8.62581 34.2879 8.4287C34.2442 8.23159 34.1786 7.93594 34.1129 7.69503C33.9246 6.97083 33.6492 6.27216 33.2928 5.61439C32.8415 4.74739 32.2669 3.95062 31.5869 3.24905C30.1385 1.73153 28.2697 0.682987 26.221 0.238439C24.1723 -0.206109 22.0377 -0.0262763 20.0919 0.754756C18.1462 1.53579 16.4785 2.88225 15.3037 4.62075C14.1288 6.35925 13.5007 8.41014 13.5 10.5093C13.498 11.7986 13.7392 13.0767 14.2108 14.2763C14.2065 14.3127 14.2065 14.3495 14.2108 14.3858C14.2825 14.5861 14.3702 14.7802 14.4733 14.9662C14.4689 15.0026 14.4689 15.0393 14.4733 15.0757V15.1743C14.5915 15.4221 14.7229 15.6633 14.8669 15.897C15.0835 16.2774 15.3245 16.6431 15.5886 16.9921L15.6433 17.0578C15.9138 17.3978 16.2021 17.7231 16.5072 18.0324C16.8125 18.3307 17.1337 18.6122 17.4695 18.8756C17.9242 19.2284 18.407 19.5434 18.913 19.8173L19.3176 20.0145C19.624 20.1653 19.9379 20.3005 20.258 20.4196L20.7501 20.5839L21.2531 20.7262C21.5882 20.8135 21.9277 20.8829 22.2701 20.9343L22.795 21H23.3308H24.4243H24.9601L25.4851 20.9343C25.66 20.9343 25.835 20.8795 25.999 20.8357L26.4802 20.7372H26.5458L27.4753 20.4525L27.9455 20.2554C28.2517 20.124 28.5578 19.9816 28.864 19.8173L29.3015 19.5655L29.5858 19.3793C30.5813 18.7271 31.461 17.9129 32.1884 16.9702L29.1812 13.9697C28.6573 14.7992 27.9455 15.4932 27.1035 15.9956H27.0488C26.9503 16.0568 26.848 16.1116 26.7426 16.1598C26.4802 16.3116 26.2014 16.4328 25.9115 16.5212L25.6053 16.6198C25.2961 16.719 24.9772 16.785 24.654 16.8169H24.3259C24.2571 16.8281 24.187 16.8281 24.1182 16.8169H23.473L23.0246 16.7621C22.7364 16.7248 22.4513 16.6663 22.1717 16.5869L21.778 16.4555L21.3952 16.3022C21.1329 16.1927 20.8805 16.0609 20.6408 15.908L20.2033 15.6123C19.9638 15.427 19.7339 15.2297 19.5144 15.0209V14.9662C19.3526 14.8026 19.1993 14.6308 19.0551 14.4515C19.0199 14.4162 18.9904 14.3755 18.9676 14.3311C18.8583 14.1887 18.7598 14.0354 18.6614 13.893C18.5378 13.6947 18.4247 13.49 18.3224 13.2798C18.2182 13.074 18.1269 12.8619 18.049 12.6447H34.277C34.277 12.5023 34.277 12.36 34.3535 12.2176C34.4511 11.6572 34.4987 11.0891 34.4957 10.5203C34.5066 10.2246 34.4957 9.98367 34.4738 9.75371ZM18.0709 8.4287C18.5063 7.20284 19.3095 6.14179 20.3706 5.39095C21.4316 4.64011 22.6986 4.23622 23.9978 4.23463C25.2975 4.23463 26.5652 4.63788 27.6265 5.38894C28.6879 6.14 29.4908 7.20195 29.9248 8.4287H18.0709Z" fill="#022B3A"/>
<path id="Vector_7" d="M79.4839 9.74759C79.4839 9.49559 79.4839 9.25457 79.4073 9.02449C79.3307 8.7944 79.3416 8.61907 79.2978 8.42186C79.254 8.22464 79.1884 7.92883 79.1227 7.68779C78.9341 6.96319 78.6585 6.26414 78.3017 5.60601C77.85 4.73854 77.2748 3.94134 76.5941 3.23939C75.1436 1.7249 73.2738 0.679209 71.225 0.236668C69.1761 -0.205873 67.0419 -0.0250256 65.0965 0.755974C63.1512 1.53697 61.4836 2.88246 60.3081 4.61946C59.1326 6.35646 58.5029 8.40561 58.5 10.5036C58.498 11.7936 58.7394 13.0723 59.2115 14.2727C59.2072 14.309 59.2072 14.3458 59.2115 14.3822C59.2833 14.5826 59.3711 14.7768 59.4742 14.9629C59.4699 14.9993 59.4699 15.0361 59.4742 15.0725V15.1711C59.5926 15.419 59.7241 15.6604 59.8683 15.8942C60.0851 16.2748 60.3264 16.6408 60.5908 16.9899V17.0556C60.8615 17.3959 61.1501 17.7213 61.4555 18.0307C61.7611 18.3292 62.0827 18.6109 62.4188 18.8744C62.8739 19.2274 63.3572 19.5426 63.8637 19.8167L64.2687 20.0139C64.5755 20.1648 64.8896 20.3001 65.21 20.4193L65.7026 20.5836L66.2061 20.7261C66.5416 20.8134 66.8814 20.8828 67.2242 20.9343L67.7496 21H68.2859H69.3805H69.9169L70.4424 20.9343C70.6175 20.9343 70.7926 20.8795 70.9568 20.8357L71.4384 20.737H71.5041L72.4345 20.4522L72.9053 20.255C73.2117 20.1235 73.5182 19.981 73.8247 19.8167L74.2626 19.5647L74.5472 19.3784C75.5437 18.7259 76.4242 17.9112 77.1523 16.968L74.1421 13.9659C73.6177 14.7958 72.9052 15.4903 72.0624 15.9928C71.9638 16.0541 71.8614 16.109 71.7558 16.1572C71.4932 16.309 71.2141 16.4303 70.924 16.5188L70.6175 16.6174C70.3079 16.7166 69.9887 16.7827 69.6652 16.8146H69.3368H69.2821C69.2132 16.8258 69.143 16.8258 69.0741 16.8146H68.4282L67.9795 16.7598C67.6909 16.7225 67.4055 16.6639 67.1256 16.5845L66.7316 16.453L66.3484 16.2996C66.0858 16.1901 65.8331 16.0582 65.5931 15.9052L65.1553 15.6094C64.9156 15.424 64.6854 15.2265 64.4657 15.0177V14.9629C64.3038 14.7993 64.1503 14.6274 64.006 14.448C63.9707 14.4126 63.9412 14.3719 63.9184 14.3275C63.8089 14.185 63.7104 14.0316 63.6119 13.8892C63.4881 13.6907 63.3749 13.4859 63.2725 13.2756C63.1682 13.0697 63.0768 12.8575 62.9989 12.6401H79.2212C79.2212 12.4977 79.2759 12.3553 79.2978 12.2128C79.3954 11.6521 79.4431 11.0838 79.4401 10.5146C79.5167 10.2187 79.5058 9.97768 79.4839 9.74759ZM63.0646 8.42186C63.4973 7.19679 64.2972 6.13527 65.3552 5.38225C66.4131 4.62924 67.6774 4.22145 68.9755 4.21454C70.2765 4.21453 71.5454 4.61801 72.6079 5.36948C73.6703 6.12095 74.474 7.18347 74.9084 8.41089L63.0646 8.42186Z" fill="#022B3A"/>
</g>
</svg>
